<?xml version="1.0" encoding="utf-8"?>
<!-- Generator: Adobe Illustrator 23.0.1, SVG Export Plug-In . SVG Version: 6.00 Build 0)  -->
<svg version="1.1" id="Layer_1" xmlns="http://www.w3.org/2000/svg" xmlns:xlink="http://www.w3.org/1999/xlink" x="0px" y="0px"
	 viewBox="0 0 273 62" style="enable-background:new 0 0 273 62;" xml:space="preserve">
<style type="text/css">
	.st0{fill:none;}
	.st1{fill-rule:evenodd;clip-rule:evenodd;fill:#BABF10;}
	.st2{fill-rule:evenodd;clip-rule:evenodd;fill:#4B4F54;}
	.st3{fill:#4B4F54;}
</style>
<title>makeart-logo</title>
<desc>Created with Sketch.</desc>
<g id="Page-1">
	<g id="Desktop" transform="translate(-256.000000, -862.000000)">
		<g id="makeart-logo" transform="translate(256.000000, 862.000000)">
			<path id="Path" class="st0" d="M152.3,14c-2.5-0.1-5,1-6.7,2.8c-0.8,0.8-1.4,1.8-1.8,2.8H161c-0.4-1-1.1-2-1.8-2.8
				C157.4,14.9,154.9,13.9,152.3,14z"/>
			<path class="st1" d="M159.1,31.2c-1.8,1.9-4.2,2.9-6.8,2.8c-2.5,0.1-5-0.9-6.7-2.8c-1.1-1.1-1.9-2.5-2.2-4.1
				c-0.3-1.1-0.4-2.2-0.4-3.2c0-1.5,0.3-3,0.8-4.4c0.4-1,1.1-2,1.8-2.8c3.7-3.7,9.8-3.7,13.5,0c0.8,0.8,1.4,1.8,1.9,2.8h9
				c-0.4-1.6-1-3.2-1.9-4.7c-1.6-2.8-3.9-5.1-6.7-6.6c-2.8-1.6-6-2.5-9.2-2.4c-4.5,0-8.8,1.7-12,4.7c-2.7,2.4-4.6,5.6-5.4,9.1
				c-0.3,1.5-0.5,2.9-0.5,4.4c0,1.1,0.1,2.2,0.3,3.2c0.6,3.7,2.3,7,5,9.6c3.3,3.4,7.9,5.4,12.7,5.3c3.2,0,6.4-0.8,9.2-2.4
				c2.8-1.6,5.1-3.9,6.6-6.6c0.1-0.2,0.3-0.5,0.4-0.8l-8.7-2C159.6,30.6,159.3,30.9,159.1,31.2z"/>
			<rect id="Rectangle" x="101" class="st1" width="8.7" height="41.3"/>
			<path class="st2" d="M47.7,7.6c-2-1.2-4.2-1.8-6.5-1.7c-2.3,0-4.5,0.5-6.6,1.6c-2,1.1-3.8,2.7-5.1,4.6c-0.9-1.9-2.4-3.5-4.2-4.6
				c-1.8-1.1-3.8-1.6-5.9-1.6c-2,0-4.1,0.4-5.9,1.2c-1.9,0.9-3.6,2.1-4.9,3.6v-4H0v34.6h8.7V26c-0.1-2.5,0.2-4.9,0.9-7.3
				c0.5-1.4,1.4-2.7,2.6-3.6c1.1-0.8,2.5-1.3,3.9-1.3c1.2,0,2.3,0.3,3.3,1c1,0.8,1.7,1.9,2,3.1c0.5,2.2,0.8,4.5,0.7,6.7v16.7h8.7
				V25.7c-0.1-2.4,0.2-4.9,0.9-7.2c0.5-1.4,1.4-2.6,2.6-3.5c1.2-0.8,2.6-1.3,4-1.3c1.7-0.1,3.4,0.7,4.4,2.1c1,1.4,1.5,4.1,1.5,8
				v17.5H53V21.1c0-4.2-0.4-7.2-1.2-9C50.9,10.2,49.5,8.6,47.7,7.6z"/>
			<polygon class="st2" points="133.3,6.8 122.4,6.8 109.6,21 109.6,25.4 124.3,41.3 135.1,41.3 118.4,23.3 			"/>
			<path class="st2" d="M170,19.6h-26.2c-0.6,1.4-0.9,2.9-0.9,4.4c0,1.1,0.1,2.2,0.4,3.2h26.9C170.7,24.7,170.6,22.1,170,19.6
				L170,19.6z"/>
			<path id="Shape" class="st3" d="M85.1,8.6c-2.9-1.9-6.2-2.8-9.6-2.8c-3.2,0-6.4,0.8-9.2,2.4c-2.8,1.6-5.1,3.9-6.6,6.6
				c-1.6,2.8-2.4,5.9-2.4,9.1c0,6.5,3.5,12.5,9.1,15.7c2.8,1.6,6,2.5,9.2,2.5c3.4,0,6.7-1,9.6-2.8v2h8.7V6.8h-8.7V8.6z M82.1,31.2
				c-3.7,3.7-9.8,3.7-13.5,0c-1.8-2-2.7-4.6-2.6-7.2c-0.1-2.7,0.9-5.3,2.7-7.3c1.8-1.9,4.2-2.9,6.8-2.8c2.5-0.1,5,0.9,6.7,2.8
				c1.8,2,2.7,4.6,2.6,7.3C84.9,26.7,84,29.3,82.1,31.2L82.1,31.2z"/>
			<path class="st2" d="M242.2,8.1c-1.4,1-2.5,2.3-3.2,3.9V7.7h-7.4v34.6h8.6v-14v-1.7c0-4.8,0.5-8.1,1.4-9.7s2-2.5,3.4-2.5
				c0.9,0.1,1.7,0.3,2.5,0.8l2.7-7.5c-1.1-0.6-2.3-0.9-3.5-0.9C245,6.7,243.5,7.2,242.2,8.1z"/>
			<polygon class="st2" points="267.4,7.7 267.4,0.2 258.7,0.2 258.7,7.7 254.2,7.7 254.2,15.1 258.7,15.1 258.7,42.2 267.4,42.2 
				267.4,15.1 272.5,15.1 272.5,7.7 			"/>
			<path class="st3" d="M215,9.3c-2.9-1.9-6.2-2.8-9.6-2.8c-3.2,0-6.4,0.8-9.2,2.4c-2.8,1.6-5.1,3.9-6.6,6.6
				c-1.6,2.8-2.4,5.9-2.4,9.1c0,6.5,3.5,12.5,9.1,15.7c2.8,1.6,6,2.5,9.2,2.5c3.4,0,6.7-1,9.6-2.9v2h8.7V7.4H215V9.3z M212,31.9
				c-3.7,3.7-9.8,3.7-13.5,0c-1.8-2-2.8-4.6-2.7-7.2c-0.1-2.7,0.9-5.3,2.7-7.3c1.8-1.9,4.2-2.9,6.8-2.8c2.5-0.1,5,0.9,6.7,2.8
				c1.8,2,2.8,4.6,2.7,7.3C214.8,27.3,213.9,29.9,212,31.9L212,31.9z"/>
			<rect x="28.8" y="53.6" class="st1" width="2.5" height="2.5"/>
			<rect x="26.3" y="56.1" class="st1" width="2.5" height="2.5"/>
			<rect x="23.7" y="53.6" class="st1" width="2.5" height="2.5"/>
			<rect x="28.8" y="58.7" class="st1" width="2.5" height="2.5"/>
			<rect x="23.7" y="58.7" class="st1" width="2.5" height="2.5"/>
			<path class="st3" d="M40.8,53.5l3.6,7.6h-0.8l-1.2-2.5H39l-1.2,2.5H37l3.6-7.6H40.8z M40.7,55.2l-1.3,2.8H42L40.7,55.2z"/>
			<path class="st2" d="M44.5,59.8l0.6-0.4c0.5,0.8,1,1.3,1.6,1.3c0.3,0,0.5-0.1,0.7-0.2c0.2-0.1,0.4-0.3,0.5-0.5
				c0.1-0.2,0.2-0.4,0.2-0.6c0-0.3-0.1-0.5-0.3-0.8c-0.4-0.5-0.8-0.9-1.3-1.2c-0.4-0.3-0.8-0.6-1.2-1c-0.3-0.3-0.4-0.7-0.4-1.2
				c0-0.3,0.1-0.6,0.2-0.9c0.2-0.3,0.4-0.5,0.7-0.7c0.3-0.2,0.6-0.2,0.9-0.2c0.4,0,0.7,0.1,1,0.3c0.4,0.3,0.7,0.6,1,1l-0.6,0.5
				c-0.2-0.3-0.5-0.5-0.7-0.8c-0.2-0.1-0.4-0.2-0.7-0.2c-0.3,0-0.6,0.1-0.8,0.3c-0.2,0.2-0.3,0.4-0.3,0.7c0,0.2,0,0.3,0.1,0.5
				c0.1,0.2,0.2,0.4,0.4,0.5c0.1,0.1,0.4,0.4,1,0.8c0.5,0.4,1,0.8,1.4,1.3c0.2,0.3,0.4,0.7,0.4,1.2c0,0.5-0.2,1.1-0.6,1.4
				c-0.4,0.4-1,0.6-1.5,0.6c-0.5,0-0.9-0.1-1.3-0.4C45.1,60.7,44.7,60.3,44.5,59.8z"/>
			<path class="st2" d="M60.3,54.8l-0.6,0.6c-0.4-0.4-0.9-0.8-1.4-1c-0.5-0.2-1-0.3-1.5-0.3c-0.6,0-1.2,0.2-1.7,0.4
				c-0.5,0.3-1,0.7-1.3,1.2c-0.3,0.5-0.4,1-0.5,1.6c0,0.6,0.1,1.2,0.5,1.7c0.3,0.5,0.7,0.9,1.3,1.2c0.5,0.3,1.2,0.4,1.8,0.4
				c0.7,0,1.4-0.2,2-0.7c0.5-0.4,0.9-1,1-1.7h-2.5v-0.7h3.3c0,1-0.3,2.1-1,2.8c-0.8,0.7-1.8,1.1-2.8,1c-1.3,0.1-2.5-0.5-3.4-1.4
				c-0.6-0.7-1-1.6-1-2.6c0-0.7,0.2-1.4,0.5-2c0.4-0.6,0.9-1.1,1.5-1.5c0.7-0.4,1.4-0.5,2.2-0.5c0.6,0,1.2,0.1,1.8,0.4
				C59.3,54,59.8,54.3,60.3,54.8z"/>
			<path class="st3" d="M62,53.5h1.5c0.6,0,1.2,0,1.7,0.1c0.4,0.1,0.8,0.3,1.1,0.7c0.3,0.4,0.4,0.8,0.4,1.3c0,0.4-0.1,0.8-0.3,1.1
				c-0.2,0.3-0.5,0.6-0.8,0.7c-0.5,0.2-1,0.3-1.5,0.2l2.8,3.5H66l-2.8-3.5h-0.4v3.5H62V53.5z M62.8,54.3v2.6h1.3
				c0.4,0,0.8,0,1.1-0.1c0.2-0.1,0.4-0.2,0.6-0.5c0.1-0.2,0.2-0.5,0.2-0.7c0-0.2-0.1-0.5-0.2-0.7c-0.1-0.2-0.3-0.4-0.6-0.5
				c-0.4-0.1-0.7-0.2-1.1-0.1L62.8,54.3z"/>
			<path class="st3" d="M71.3,53.5l3.6,7.6H74l-1.2-2.5h-3.3l-1.2,2.5h-0.8l3.6-7.6H71.3z M71.2,55.2l-1.3,2.8h2.6L71.2,55.2z"/>
			<path class="st3" d="M75.8,53.5h1.5c0.6,0,1.2,0,1.8,0.1c0.4,0.1,0.8,0.3,1.1,0.7c0.5,0.8,0.5,1.8,0,2.5
				c-0.3,0.3-0.7,0.6-1.1,0.7c-0.6,0.1-1.3,0.2-1.9,0.1h-0.5v3.5h-0.8L75.8,53.5z M76.5,54.3v2.6h1.3c0.4,0,0.8,0,1.2-0.1
				c0.2-0.1,0.4-0.3,0.6-0.5c0.1-0.2,0.2-0.5,0.2-0.7c0-0.2-0.1-0.5-0.2-0.7c-0.1-0.2-0.3-0.4-0.6-0.5c-0.4-0.1-0.7-0.1-1.1-0.1
				L76.5,54.3z"/>
			<polygon class="st2" points="81.8,53.5 82.6,53.5 82.6,56.7 86.4,56.7 86.4,53.5 87.2,53.5 87.2,61.2 86.4,61.2 86.4,57.5 
				82.6,57.5 82.6,61.2 81.8,61.2 			"/>
			<polygon class="st2" points="88.7,53.5 89.5,53.5 89.5,61.2 88.7,61.2 			"/>
			<path class="st2" d="M98.1,55l-0.6,0.5c-0.3-0.4-0.7-0.8-1.2-1c-0.5-0.2-1-0.3-1.5-0.3c-0.6,0-1.2,0.1-1.7,0.4
				c-0.5,0.3-0.9,0.7-1.2,1.2c-0.3,0.5-0.4,1.1-0.4,1.7c0,0.9,0.4,1.7,1,2.3c0.6,0.6,1.5,1,2.4,0.9c1,0,2-0.4,2.7-1.3l0.6,0.5
				c-0.4,0.5-0.9,0.9-1.5,1.1c-0.6,0.3-1.3,0.4-1.9,0.4c-1.2,0-2.4-0.5-3.2-1.4c-0.7-0.7-1-1.7-1-2.7c0-1.1,0.4-2.1,1.2-2.8
				c0.8-0.8,1.9-1.2,3-1.1c0.7,0,1.3,0.1,1.9,0.4C97.2,54,97.7,54.5,98.1,55z"/>
			<path class="st2" d="M101.2,59.8l0.7-0.4c0.5,0.8,1,1.3,1.6,1.3c0.3,0,0.5-0.1,0.7-0.2c0.2-0.1,0.4-0.3,0.5-0.5
				c0.1-0.2,0.2-0.4,0.2-0.6c0-0.3-0.1-0.5-0.3-0.8c-0.4-0.5-0.8-0.9-1.3-1.2c-0.4-0.3-0.8-0.6-1.2-1c-0.3-0.3-0.4-0.7-0.4-1.2
				c0-0.3,0.1-0.6,0.2-0.9c0.2-0.3,0.4-0.5,0.7-0.7c0.3-0.2,0.6-0.2,0.9-0.2c0.4,0,0.7,0.1,1,0.3c0.4,0.3,0.7,0.6,1,1l-0.6,0.5
				c-0.2-0.3-0.5-0.5-0.7-0.8c-0.2-0.1-0.4-0.2-0.7-0.2c-0.3,0-0.6,0.1-0.8,0.3c-0.2,0.2-0.3,0.4-0.3,0.7c0,0.2,0,0.3,0.1,0.5
				c0.1,0.2,0.2,0.4,0.4,0.5c0.1,0.1,0.4,0.4,1,0.8c0.5,0.4,1,0.8,1.4,1.3c0.2,0.3,0.4,0.7,0.4,1.2c0,0.5-0.2,1.1-0.6,1.4
				c-0.4,0.4-1,0.6-1.5,0.6c-0.4,0-0.9-0.1-1.3-0.4C101.8,60.7,101.5,60.3,101.2,59.8z"/>
			<polygon class="st2" points="106.3,54.3 106.3,53.5 110.5,53.5 110.5,54.3 108.8,54.3 108.8,61.2 108,61.2 108,54.3 			"/>
			<path class="st2" d="M111.3,53.5h0.8v4.6c0,0.3,0,0.7,0,1c0,0.3,0.1,0.5,0.3,0.8c0.2,0.2,0.4,0.4,0.6,0.5
				c0.3,0.1,0.6,0.2,0.9,0.2c0.3,0,0.5-0.1,0.7-0.2c0.2-0.1,0.4-0.3,0.6-0.5c0.2-0.2,0.3-0.4,0.3-0.7c0.1-0.4,0.1-0.8,0.1-1.2v-4.6
				h0.8v4.6c0,0.6-0.1,1.1-0.2,1.6c-0.1,0.4-0.4,0.8-0.8,1.1c-0.4,0.3-0.9,0.5-1.4,0.5c-0.6,0-1.1-0.1-1.6-0.4
				c-0.4-0.3-0.7-0.7-0.9-1.2c-0.1-0.5-0.2-1.1-0.1-1.6L111.3,53.5z"/>
			<path class="st3" d="M118,61.2v-7.6h1.6c0.8,0,1.7,0.1,2.5,0.3c0.7,0.2,1.3,0.7,1.7,1.3c0.4,0.7,0.7,1.5,0.6,2.3
				c0,0.7-0.2,1.4-0.5,2c-0.3,0.5-0.7,1-1.3,1.3c-0.7,0.3-1.5,0.5-2.2,0.4L118,61.2z M118.7,60.5h0.9c0.7,0,1.5,0,2.2-0.2
				c0.6-0.2,1-0.5,1.4-1c0.3-0.5,0.5-1.2,0.5-1.8c0-0.7-0.2-1.3-0.5-1.9c-0.4-0.5-0.9-0.9-1.5-1.1c-0.8-0.2-1.6-0.3-2.4-0.2h-0.5
				V60.5z"/>
			<polygon class="st2" points="125.5,53.5 126.3,53.5 126.3,61.2 125.5,61.2 			"/>
			<path class="st3" d="M131.4,53.3c1.1,0,2.1,0.4,2.9,1.2c1.2,1.1,1.5,2.9,0.9,4.4c-0.6,1.5-2.1,2.5-3.8,2.5
				c-1.1,0-2.1-0.4-2.9-1.2c-0.8-0.7-1.2-1.8-1.2-2.8c0-0.7,0.2-1.4,0.5-2C128.7,54.2,130,53.4,131.4,53.3L131.4,53.3z M131.4,54.1
				c-0.6,0-1.1,0.2-1.6,0.4c-0.5,0.3-0.9,0.7-1.2,1.2c-0.3,0.5-0.4,1.1-0.4,1.7c0,0.9,0.3,1.7,0.9,2.3c0.6,0.6,1.4,0.9,2.3,0.9
				c0.6,0,1.1-0.1,1.7-0.4c0.5-0.3,0.9-0.7,1.2-1.2c0.3-0.5,0.4-1.1,0.4-1.7c0-0.6-0.1-1.1-0.4-1.7c-0.3-0.5-0.7-0.9-1.2-1.2
				C132.6,54.2,132,54.1,131.4,54.1L131.4,54.1z"/>
			<polygon class="st2" points="142,53.5 142.8,53.5 142.8,61.2 142,61.2 			"/>
			<path class="st3" d="M147.9,53.3c1.1,0,2.1,0.4,2.9,1.2c1.2,1.1,1.5,2.9,0.9,4.4c-0.6,1.5-2.1,2.5-3.8,2.5
				c-1.1,0-2.1-0.4-2.9-1.2c-0.8-0.7-1.2-1.8-1.2-2.8c0-0.7,0.2-1.4,0.5-2C145.1,54.2,146.4,53.4,147.9,53.3L147.9,53.3z
				 M147.9,54.1c-0.6,0-1.1,0.2-1.6,0.4c-0.5,0.3-0.9,0.7-1.2,1.2c-0.3,0.5-0.4,1.1-0.4,1.7c0,0.9,0.3,1.7,0.9,2.3
				c0.6,0.6,1.4,0.9,2.3,0.9c0.6,0,1.1-0.1,1.6-0.4c0.5-0.3,0.9-0.7,1.2-1.2c0.3-0.5,0.4-1.1,0.4-1.7c0-0.6-0.1-1.1-0.4-1.7
				c-0.3-0.5-0.7-0.9-1.2-1.2C149,54.2,148.5,54.1,147.9,54.1L147.9,54.1z"/>
			<polygon class="st2" points="155.3,53.5 156.2,53.5 158.2,56.7 160,53.5 160.9,53.5 158.5,57.5 158.5,61.2 157.7,61.2 
				157.7,57.5 			"/>
			<polygon class="st2" points="161.9,53.5 166.3,53.5 166.3,54.3 162.7,54.3 162.7,56.7 166.3,56.7 166.3,57.4 162.7,57.4 
				162.7,60.4 166.3,60.4 166.3,61.2 161.9,61.2 			"/>
			<path class="st3" d="M170.5,53.5l3.5,7.6h-0.8l-1.2-2.5h-3.3l-1.2,2.5h-0.9l3.6-7.6H170.5z M170.4,55.2l-1.3,2.8h2.6L170.4,55.2z
				"/>
			<path class="st3" d="M175,53.5h1.5c0.6,0,1.2,0,1.7,0.1c0.4,0.1,0.8,0.3,1.1,0.7c0.3,0.4,0.4,0.8,0.4,1.3c0,0.4-0.1,0.8-0.3,1.1
				c-0.2,0.3-0.5,0.6-0.8,0.7c-0.5,0.2-1,0.3-1.5,0.2l2.8,3.5h-0.9l-2.8-3.5h-0.4v3.5H175V53.5z M175.8,54.3v2.6h1.3
				c0.4,0,0.8,0,1.1-0.1c0.2-0.1,0.4-0.3,0.6-0.5c0.1-0.2,0.2-0.5,0.2-0.7c0-0.2-0.1-0.5-0.2-0.7c-0.1-0.2-0.3-0.4-0.6-0.5
				c-0.4-0.1-0.7-0.2-1.1-0.1L175.8,54.3z"/>
			<path class="st2" d="M190.9,55l-0.6,0.5c-0.3-0.4-0.7-0.8-1.2-1c-0.5-0.2-1-0.3-1.5-0.3c-0.6,0-1.2,0.1-1.7,0.4
				c-0.5,0.3-0.9,0.7-1.2,1.2c-0.3,0.5-0.4,1.1-0.4,1.7c0,0.9,0.4,1.7,1,2.3c0.6,0.6,1.5,1,2.4,0.9c1,0,2-0.4,2.7-1.3l0.6,0.5
				c-0.4,0.5-0.9,0.9-1.5,1.1c-0.6,0.3-1.3,0.4-1.9,0.4c-1.2,0-2.4-0.5-3.2-1.4c-0.7-0.7-1-1.7-1-2.7c0-1.1,0.4-2.1,1.2-2.8
				c0.8-0.8,1.9-1.2,2.9-1.1c0.7,0,1.3,0.1,1.9,0.4C190.1,54,190.6,54.5,190.9,55z"/>
			<polygon class="st2" points="192.2,53.5 196.6,53.5 196.6,54.3 193,54.3 193,56.7 196.6,56.7 196.6,57.4 193,57.4 193,60.4 
				196.6,60.4 196.6,61.2 192.2,61.2 			"/>
			<polygon class="st2" points="197.6,53.5 198.4,53.5 198.4,60.4 201.4,60.4 201.4,61.2 197.6,61.2 			"/>
			<polygon class="st2" points="202.3,53.5 206.7,53.5 206.7,54.3 203.1,54.3 203.1,56.7 206.7,56.7 206.7,57.4 203.1,57.4 
				203.1,60.4 206.7,60.4 206.7,61.2 202.3,61.2 			"/>
			<path class="st3" d="M207.8,53.5h1.5c0.5,0,1,0.1,1.4,0.2c0.3,0.1,0.6,0.4,0.8,0.7c0.2,0.3,0.3,0.6,0.3,1c0,0.3-0.1,0.6-0.2,0.9
				c-0.2,0.3-0.4,0.5-0.7,0.7c0.3,0.1,0.6,0.3,0.9,0.5c0.2,0.2,0.4,0.4,0.5,0.7c0.1,0.3,0.2,0.6,0.2,0.8c0,0.6-0.2,1.2-0.7,1.6
				c-0.5,0.4-1.1,0.7-1.8,0.6h-2.1L207.8,53.5z M208.5,54.3v2.5h0.4c0.4,0,0.8,0,1.2-0.2c0.2-0.1,0.4-0.3,0.6-0.5
				c0.1-0.2,0.2-0.5,0.2-0.7c0-0.3-0.1-0.6-0.4-0.8c-0.3-0.2-0.8-0.3-1.2-0.3H208.5z M208.5,57.5v2.9h1c0.4,0,0.8,0,1.2-0.2
				c0.3-0.1,0.5-0.3,0.6-0.5c0.3-0.5,0.3-1.2-0.1-1.6c-0.2-0.3-0.6-0.4-0.9-0.5c-0.4-0.1-0.9-0.1-1.4-0.1L208.5,57.5z"/>
			<path class="st3" d="M213.6,53.5h1.5c0.6,0,1.2,0,1.7,0.1c0.4,0.1,0.8,0.3,1.1,0.7c0.3,0.4,0.4,0.8,0.4,1.3
				c0,0.4-0.1,0.8-0.3,1.1c-0.2,0.3-0.5,0.6-0.8,0.7c-0.5,0.2-1,0.3-1.5,0.2l2.8,3.5h-0.9l-2.8-3.5h-0.4v3.5h-0.8L213.6,53.5z
				 M214.4,54.3v2.6h1.3c0.4,0,0.8,0,1.1-0.1c0.2-0.1,0.4-0.3,0.6-0.5c0.1-0.2,0.2-0.5,0.2-0.7c0-0.2-0.1-0.5-0.2-0.7
				c-0.1-0.2-0.3-0.4-0.6-0.5c-0.4-0.1-0.7-0.2-1.1-0.1L214.4,54.3z"/>
			<path class="st3" d="M222.9,53.5l3.6,7.6h-0.8l-1.2-2.5h-3.3l-1.2,2.5h-0.9l3.6-7.6H222.9z M222.8,55.2l-1.3,2.8h2.6L222.8,55.2z
				"/>
			<polygon class="st2" points="226.6,54.3 226.6,53.5 230.8,53.5 230.8,54.3 229.1,54.3 229.1,61.2 228.3,61.2 228.3,54.3 			"/>
			<polygon class="st2" points="231.5,53.5 232.3,53.5 232.3,61.2 231.5,61.2 			"/>
			<path class="st3" d="M237.4,53.3c1.1,0,2.1,0.4,2.9,1.2c1.2,1.1,1.5,2.9,0.9,4.4c-0.6,1.5-2.1,2.5-3.8,2.5
				c-1.1,0-2.1-0.4-2.9-1.2c-0.8-0.7-1.2-1.8-1.2-2.8c0-0.7,0.2-1.4,0.5-2C234.7,54.2,236,53.4,237.4,53.3L237.4,53.3z M237.4,54.1
				c-1.2,0-2.2,0.6-2.8,1.6c-0.3,0.5-0.4,1.1-0.4,1.7c0,0.9,0.3,1.7,0.9,2.3c0.6,0.6,1.4,0.9,2.3,0.9c0.6,0,1.1-0.1,1.7-0.4
				c0.5-0.3,0.9-0.7,1.2-1.2c0.3-0.5,0.4-1.1,0.4-1.7c0-0.6-0.1-1.1-0.4-1.7c-0.3-0.5-0.7-0.9-1.2-1.2
				C238.6,54.2,238,54.1,237.4,54.1L237.4,54.1z"/>
			<polygon class="st2" points="242.8,61.2 242.8,53.5 242.9,53.5 248,59.4 248,53.5 248.8,53.5 248.8,61.2 248.6,61.2 243.6,55.4 
				243.6,61.2 			"/>
			<rect x="140.8" y="54" transform="matrix(0.7569 -0.6536 0.6536 0.7569 -1.1452 105.8406)" class="st2" width="1.7" height="1"/>
		</g>
	</g>
</g>
</svg>
