<?xml version="1.0" encoding="utf-8"?>
<!-- Generator: Adobe Illustrator 23.0.1, SVG Export Plug-In . SVG Version: 6.00 Build 0)  -->
<svg version="1.1" id="Layer_1" xmlns="http://www.w3.org/2000/svg" xmlns:xlink="http://www.w3.org/1999/xlink" x="0px" y="0px"
	 viewBox="0 0 300 300" style="enable-background:new 0 0 300 300;" xml:space="preserve">
<style type="text/css">
	.st0{opacity:0.6;}
	.st1{fill-rule:evenodd;clip-rule:evenodd;fill:#FFFFFF;}
</style>
<title>favicon</title>
<desc>Created with Sketch.</desc>
<g id="favicon" class="st0">
	
		<g id="Group" transform="translate(150.413714, 150.413714) rotate(20.000000) translate(-150.413714, -150.413714) translate(47.883945, 47.883945)">
		
			<rect id="Rectangle" x="1.2" y="0.5" transform="matrix(2.259292e-06 1 -1 2.259292e-06 69.1654 -0.6702)" class="st1" width="67.4" height="67.4"/>
		
			<rect id="Rectangle-Copy" x="69.4" y="69.1" transform="matrix(2.259292e-06 1 -1 2.259292e-06 205.9272 -0.3161)" class="st1" width="67.4" height="67.4"/>
		
			<rect id="Rectangle-Copy-4" x="0.5" y="136.4" transform="matrix(2.259292e-06 1 -1 2.259292e-06 204.3892 135.8937)" class="st1" width="67.4" height="67.4"/>
		
			<rect id="Rectangle-Copy-3" x="136.4" y="137.1" transform="matrix(2.259292e-06 1 -1 2.259292e-06 340.9531 0.6699)" class="st1" width="67.4" height="67.4"/>
		
			<rect id="Rectangle-Copy-2" x="137.1" y="1.2" transform="matrix(2.259292e-06 1 -1 2.259292e-06 205.7293 -135.8941)" class="st1" width="67.4" height="67.4"/>
	</g>
</g>
</svg>
