<?xml version="1.0" encoding="utf-8"?>
<!-- Generator: Adobe Illustrator 23.0.1, SVG Export Plug-In . SVG Version: 6.00 Build 0)  -->
<svg version="1.1" id="Layer_1" xmlns="http://www.w3.org/2000/svg" xmlns:xlink="http://www.w3.org/1999/xlink" x="0px" y="0px"
	 viewBox="0 0 300 300" style="enable-background:new 0 0 300 300;" xml:space="preserve">
<style type="text/css">
	.st0{opacity:0.9;}
	.st1{fill-rule:evenodd;clip-rule:evenodd;fill:#FFFFFF;}
</style>
<title>favicon</title>
<desc>Created with Sketch.</desc>
<g id="favicon" class="st0">
	
		<g id="Group" transform="translate(150.412739, 150.423078) rotate(-10.000000) translate(-150.412739, -150.423078) translate(47.912739, 47.923078)">
		
			<rect id="Rectangle" x="1.2" y="0.5" transform="matrix(-1 2.757979e-06 -2.757979e-06 -1 69.8357 68.4952)" class="st1" width="67.4" height="67.4"/>
		
			<rect id="Rectangle-Copy" x="69.4" y="69.1" transform="matrix(-1 2.757979e-06 -2.757979e-06 -1 206.2437 205.6112)" class="st1" width="67.4" height="67.4"/>
		
			<rect id="Rectangle-Copy-4" x="0.5" y="136.4" transform="matrix(-1 2.757979e-06 -2.757979e-06 -1 68.4958 340.2832)" class="st1" width="67.4" height="67.4"/>
		
			<rect id="Rectangle-Copy-3" x="136.4" y="137.1" transform="matrix(-1 2.757979e-06 -2.757979e-06 -1 340.2839 341.6232)" class="st1" width="67.4" height="67.4"/>
		
			<rect id="Rectangle-Copy-2" x="137.1" y="1.2" transform="matrix(-1 2.757979e-06 -2.757979e-06 -1 341.6238 69.8351)" class="st1" width="67.4" height="67.4"/>
	</g>
</g>
</svg>
