<?xml version="1.0" encoding="UTF-8"?>
<svg width="143px" height="51px" viewBox="0 0 143 51" version="1.1" xmlns="http://www.w3.org/2000/svg" xmlns:xlink="http://www.w3.org/1999/xlink">
    <!-- Generator: Sketch 52.5 (67469) - http://www.bohemiancoding.com/sketch -->
    <title>Group</title>
    <desc>Created with Sketch.</desc>
    <g id="Page-1" stroke="none" stroke-width="1" fill="none" fill-rule="evenodd">
        <g id="home-copy-2" transform="translate(-58.000000, -77.000000)">
            <g id="Group" transform="translate(58.000000, 77.000000)">
                <polygon id="Fill-1" fill="#ABBF2B" points="136 34 143 34 143 27 136 27"></polygon>
                <polygon id="Fill-2" fill="#ABBF2B" points="129 41 136 41 136 34 129 34"></polygon>
                <polygon id="Fill-3" fill="#ABBF2B" points="122 34 129 34 129 27 122 27"></polygon>
                <polygon id="Fill-4" fill="#ABBF2B" points="136 48 143 48 143 41 136 41"></polygon>
                <polygon id="Fill-5" fill="#ABBF2B" points="122 41 129 41 128.998001 48 122 48"></polygon>
                <path d="M49.5939264,8.47251916 C48.4463695,8.47251916 47.4993186,8.86585943 46.7518007,9.65055341 C46.0042827,10.4362407 45.6305237,11.4235645 45.6305237,12.6125249 C45.6305237,13.8471763 46.0130426,14.8603254 46.7780807,15.6499858 C47.5431186,16.4396463 48.503796,16.8349731 49.6601129,16.8349731 C50.7901499,16.8349731 51.7226007,16.4485857 52.4564922,15.6768046 C53.1903835,14.9060165 53.5573292,13.8928673 53.5573292,12.6403368 C53.5573292,11.4056854 53.1884368,10.402469 52.4506522,9.63068775 C51.7118941,8.85890644 50.7590033,8.47251916 49.5939264,8.47251916 Z M53.371423,5.38142086 L57,5.38142086 L57,18.0745908 C57,20.579652 56.5074947,22.4231861 55.519564,23.603207 C54.1938875,25.2014001 52.1966128,26 49.5277399,26 C48.1037571,26 46.9065603,25.8192224 45.9371228,25.4556807 C44.9676855,25.0921389 44.1491143,24.5587457 43.4823827,23.8555009 C42.8146779,23.151263 42.3202259,22.2960458 42,21.287863 L46.0169359,21.287863 C46.373175,21.7060354 46.8316138,22.0209063 47.391279,22.2344623 C47.9519174,22.4480182 48.615729,22.5542996 49.3797936,22.5542996 C50.3589644,22.5542996 51.1473623,22.4003406 51.7420674,22.0914294 C52.338719,21.7835115 52.759198,21.3832182 53.003504,20.8935296 C53.2487834,20.4028475 53.371423,19.5585564 53.371423,18.3596632 C52.7299981,19.0132439 52.0583998,19.483067 51.3556551,19.7701258 C50.6529103,20.0561915 49.8567257,20.1992244 48.9661282,20.1992244 C47.0184933,20.1992244 45.372591,19.4810803 44.0284213,18.046779 C42.6852248,16.6124776 42.0136266,14.7967553 42.0136266,12.5996122 C42.0136266,10.2475168 42.7251314,8.35928484 44.1491143,6.933923 C45.4387775,5.64464099 46.9776134,5 48.7665953,5 C49.6036597,5 50.3920576,5.15594551 51.1356823,5.4698231 C51.8783336,5.78270741 52.6229317,6.29822154 53.371423,7.01537225 L53.371423,5.38142086 Z" id="Fill-6" fill="#696A6C" fill-rule="nonzero"></path>
                <path d="M59,6.37642138 L62.2051954,6.37642138 L62.2051954,8.2173572 C62.5528911,7.49196183 63.0144872,6.94105345 63.5889846,6.56463207 C64.1644811,6.1882107 64.7949294,6 65.4793305,6 C65.9639066,6 66.4714625,6.12547379 67,6.37642138 L65.8360185,9.53483204 C65.3974022,9.31917395 65.0367178,9.21232517 64.7539653,9.21232517 C64.1784687,9.21232517 63.6918945,9.56227943 63.2952417,10.2602274 C62.8965904,10.9601359 62.6987635,12.330545 62.6987635,14.3734152 L62.7127513,15.0860672 L62.7127513,21 L59,21 L59,6.37642138 Z" id="Fill-8" fill="#696A6C"></path>
                <path d="M75.54032,9.30411219 C74.4162187,9.30411219 73.4825443,9.69525022 72.7373536,10.4775263 C71.9941059,11.2598023 71.6239395,12.2629901 71.6239395,13.4870895 C71.6239395,14.719796 71.9999353,15.7335033 72.758728,16.5291679 C73.5146059,17.3248325 74.4473088,17.722665 75.5539219,17.722665 C76.6945399,17.722665 77.6427877,17.3315268 78.3947794,16.5482945 C79.1457996,15.7660184 79.522767,14.7417915 79.522767,13.473701 C79.522767,12.2333439 79.1457996,11.2272872 78.3947794,10.4583997 C77.6427877,9.68855594 76.689682,9.30411219 75.54032,9.30411219 Z M79.3634303,6.36722983 L83,6.36722983 L83,20.6337265 L79.3634303,20.6337265 L79.3634303,19.1255977 C78.6522444,19.7892891 77.9420299,20.2684092 77.2269578,20.5610455 C76.5118856,20.8536819 75.739491,21 74.9049162,21 C73.0327094,21 71.4150528,20.2856231 70.0500034,18.8568696 C68.6839822,17.4271597 68,15.6503028 68,13.526299 C68,11.3238763 68.6626078,9.5183296 69.9819937,8.11061523 C71.3042943,6.70385718 72.908349,6 74.798044,6 C75.6685666,6 76.4837101,6.16161938 77.2473607,6.48485815 C78.0110111,6.8080969 78.7144245,7.29391137 79.3634303,7.9403889 L79.3634303,6.36722983 Z" id="Fill-10" fill="#696A6C" fill-rule="nonzero"></path>
                <path d="M94.4324761,8.32883707 C93.2870004,8.32883707 92.3368094,8.71615764 91.581903,9.49176223 C90.8279682,10.2664033 90.4490576,11.2799884 90.4490576,12.5296271 C90.4490576,13.8072069 90.8279682,14.8390981 91.581903,15.6272281 C92.3368094,16.4163214 93.2870004,16.8103864 94.4324761,16.8103864 C95.5429755,16.8103864 96.4776216,16.409577 97.2373858,15.6079584 C97.9961784,14.8063398 98.3760605,13.7850467 98.3760605,12.5431159 C98.3760605,11.3098565 98.0029794,10.2991618 97.2577887,9.5110319 C96.5116264,8.72290201 95.5701794,8.32883707 94.4324761,8.32883707 Z M90.6093659,5.36997783 L90.6093659,6.95490896 C91.2671158,6.30359379 91.9783017,5.81414394 92.7409806,5.48848637 C93.5056027,5.16282879 94.3226894,5 95.1922405,5 C97.0838785,5 98.6918194,5.70912418 100.01412,7.1264091 C101.337392,8.54465748 102,10.3637152 102,12.5826188 C102,14.7225166 101.316018,16.5126699 99.9480536,17.9530784 C98.581061,19.3925233 96.9604896,20.112246 95.0853683,20.112246 C94.2507935,20.112246 93.4745126,19.9648329 92.7545825,19.6700067 C92.0346524,19.3751806 91.3205518,18.8924752 90.6093659,18.2238174 L90.6093659,25 L87,25 L87,5.36997783 L90.6093659,5.36997783 Z" id="Fill-12" fill="#696A6C" fill-rule="nonzero"></path>
                <path d="M105,0 L108.65373,0 L108.65373,7.02843879 C109.373657,6.41903658 110.096535,5.96150128 110.825314,5.65680017 C111.55311,5.35113176 112.289756,5.19926487 113.036238,5.19926487 C114.492813,5.19926487 115.72023,5.69355777 116.71849,6.68407818 C117.572174,7.5420778 118,8.80247633 118,10.4643065 L118,20 L114.370858,20 L114.370858,13.6738248 C114.370858,12.0023216 114.291194,10.8705746 114.128915,10.2785839 C113.966637,9.68562588 113.690271,9.24356745 113.298835,8.95240861 C112.908383,8.66028248 112.42548,8.51421942 111.850129,8.51421942 C111.103647,8.51421942 110.463383,8.75798029 109.928355,9.24356745 C109.393327,9.73012192 109.022545,10.3936932 108.816009,11.233314 C108.707823,11.6666667 108.65373,12.6562198 108.65373,14.2048753 L108.65373,20 L105,20 L105,0 Z" id="Fill-14" fill="#696A6C"></path>
                <path d="M120.53216,20 L124.453174,20 L124.453174,5.83353116 L120.53216,5.83353116 L120.53216,20 Z M122.492143,0 C123.179342,0 123.769118,0.22601016 124.262518,0.67708086 C124.751728,1.12815156 125,1.67513413 125,2.31802858 C125,2.9514268 124.754871,3.49176202 124.268804,3.93903423 C123.780641,4.38630643 123.199246,4.60946773 122.521475,4.60946773 C121.824848,4.60946773 121.228787,4.38155832 120.737482,3.92573952 C120.247224,3.4699207 120,2.91629077 120,2.26579934 C120,1.64094772 120.245129,1.10725986 120.730149,0.663786143 C121.217264,0.221262047 121.805992,0 122.492143,0 Z" id="Fill-16" fill="#696A6C" fill-rule="nonzero"></path>
                <path d="M142,9.25151417 L138.950098,10.8906599 C138.377691,10.304431 137.811155,9.8979917 137.250489,9.67038571 C136.691781,9.44373604 136.036204,9.32993304 135.282779,9.32993304 C133.913894,9.32993304 132.806262,9.72967802 131.959883,10.5272553 C131.112525,11.3277016 130.688845,12.3500159 130.688845,13.5980236 C130.688845,14.8106471 131.09589,15.8004463 131.912916,16.57029 C132.727006,17.3372648 133.798435,17.7217085 135.121331,17.7217085 C136.761252,17.7217085 138.037182,17.1756456 138.950098,16.0835193 L141.838552,18.0153012 C140.272994,20.0054192 138.064579,21 135.21135,21 C132.643836,21 130.634051,20.2569333 129.180039,18.7708 C127.727006,17.2846669 127,15.5460631 127,13.5521199 C127,12.1711826 127.353229,10.8992668 128.060665,9.73637232 C128.767123,8.57443417 129.752446,7.66018488 131.017612,6.99649346 C132.283757,6.33184571 133.699609,6 135.264188,6 C136.714286,6 138.014677,6.28116034 139.168297,6.84539368 C140.321918,7.4086707 141.266145,8.21102965 142,9.25151417" id="Fill-18" fill="#696A6C"></path>
                <path d="M50.741143,35.3610225 L48.5521965,37.5766926 C47.6622579,36.6844957 46.8554558,36.2388755 46.1299008,36.2388755 C45.7321681,36.2388755 45.421351,36.3239832 45.1974492,36.4951549 C44.9726027,36.6653703 44.8592347,36.8767053 44.8592347,37.1310722 C44.8592347,37.3223257 44.9319792,37.499235 45.0736891,37.6618004 C45.2163439,37.8234094 45.5677845,38.044307 46.1299008,38.3244932 L47.4251299,38.9795359 C48.7893245,39.661354 49.7264997,40.35656 50.2357109,41.0632411 C50.7449221,41.7718348 51,42.6028306 51,43.554316 C51,44.823282 50.5408597,45.8799567 49.6197448,46.7291215 C48.7014642,47.5754176 47.4685876,48 45.9220595,48 C43.8672649,48 42.2262635,47.1881296 41,45.5615198 L43.1766651,43.1612903 C43.5914029,43.6508988 44.076051,44.0467933 44.6334435,44.3480174 C45.190836,44.6492413 45.6849314,44.8012878 46.1166745,44.8012878 C46.5833726,44.8012878 46.9584317,44.6865357 47.2437411,44.4599006 C47.5290505,44.2323091 47.6717051,43.9702919 47.6717051,43.6738493 C47.6717051,43.1230397 47.1568256,42.5856178 46.1299008,42.0596711 L44.9376475,41.4581793 C42.6580066,40.2953589 41.5177137,38.839921 41.5177137,37.0909091 C41.5177137,35.9634705 41.9475672,35.00051 42.8072743,34.2001147 C43.6669816,33.3997194 44.7657061,33 46.1043929,33 C47.0188946,33 47.8804913,33.2036848 48.6872933,33.6100981 C49.4959848,34.0165115 50.1790269,34.5998342 50.741143,35.3610225" id="Fill-19" fill="#696A6C"></path>
                <polygon id="Fill-20" fill="#696A6C" points="54.9482497 28 58.7463217 28 58.7463217 33.3869513 61 33.3869513 61 36.5423198 58.7463217 36.5423198 58.7463217 48 54.9482497 48 54.9482497 36.5423198 53 36.5423198 53 33.3869513 54.9482497 33.3869513"></polygon>
                <path d="M64,33 L67.7531089,33 L67.7531089,40.0436572 C67.7531089,41.4141559 67.8483252,42.3670347 68.0387578,42.9003333 C68.2291904,43.4326513 68.5366598,43.8473302 68.9591821,44.1433893 C69.3826962,44.4384679 69.9014266,44.5864976 70.5203326,44.5864976 C71.1392386,44.5864976 71.66392,44.4404287 72.0953688,44.1502516 C72.5268177,43.8581138 72.846189,43.4297105 73.0574501,42.8650414 C73.210193,42.4444807 73.2885481,41.5445395 73.2885481,40.1642376 L73.2885481,33 L77,33 L77,39.1966538 C77,41.7504084 76.7966735,43.497353 76.3880369,44.4384679 C75.8891431,45.5864322 75.1551842,46.4657865 74.1861601,47.0804521 C73.2151521,47.6931572 71.9822995,48 70.4866101,48 C68.8639658,48 67.5517662,47.6411998 66.5490195,46.9255604 C65.5482566,46.2089405 64.8430609,45.2099862 64.4344243,43.9277171 C64.1448081,43.0405202 64,41.4278805 64,39.0878373 L64,33 Z" id="Fill-21" fill="#696A6C"></path>
                <path d="M86.5403199,36.3861165 C85.4171902,36.3861165 84.4825442,36.7745121 83.7383249,37.5513033 C82.9950774,38.3271449 82.6239393,39.3242486 82.6239393,40.5397653 C82.6239393,41.7638288 83.0009067,42.7704287 83.7577563,43.5605146 C84.5155773,44.3496509 85.4482803,44.7446939 86.5539218,44.7446939 C87.6935682,44.7446939 88.6427877,44.3562983 89.3947794,43.5795071 C90.1457995,42.8027158 90.5237385,41.7856702 90.5237385,40.5264706 C90.5237385,39.2938607 90.1457995,38.2958074 89.3947794,37.5313612 C88.6427877,36.7688143 87.6906535,36.3861165 86.5403199,36.3861165 Z M90.3634301,28 L94,28 L94,47.635345 L90.3634301,47.635345 L90.3634301,46.1377901 C89.6532159,46.7987274 88.9430015,47.2735387 88.2279293,47.5641232 C87.512857,47.8547078 86.7394908,48 85.9058876,48 C84.0336809,48 82.4150528,47.2906319 81.0500032,45.8709462 C79.6839821,44.4522103 79,42.6878115 79,40.5786999 C79,38.3917192 79.6616361,36.598832 80.9829652,35.2009875 C82.3042943,33.8031433 83.9093205,33.104221 85.7980438,33.104221 C86.6685666,33.104221 87.4837101,33.2656568 88.2473605,33.5856796 C89.0119826,33.9076017 89.7153961,34.3890602 90.3634301,35.0319548 L90.3634301,28 Z" id="Fill-22" fill="#696A6C" fill-rule="nonzero"></path>
                <path d="M97.5313352,47 L101.453993,47 L101.453993,32.8331354 L97.5313352,32.8331354 L97.5313352,47 Z M99.49214,27 C100.179627,27 100.76965,27.2250818 101.262209,27.6771452 C101.752672,28.1282586 102,28.6752931 102,29.3182487 C102,29.9517071 101.755816,30.4911439 101.269545,30.9384587 C100.78013,31.3857732 100.199539,31.6099055 99.521484,31.6099055 C98.824565,31.6099055 98.228254,31.3810247 97.7367428,30.9251627 C97.2452316,30.4693004 97,29.9165678 97,29.2650647 C97,28.6401538 97.2431357,28.1064153 97.7294068,27.6638492 C98.2156781,27.221283 98.8057011,27 99.49214,27 Z" id="Fill-23" fill="#696A6C" fill-rule="nonzero"></path>
                <path d="M111.474592,36.3698839 C110.358581,36.3698839 109.42953,36.7571719 108.689358,37.5298355 C107.946309,38.3034552 107.576222,39.2931914 107.576222,40.4999999 C107.576222,41.7412342 107.942474,42.7462706 108.675935,43.5160652 C109.408437,44.2849037 110.336529,44.6693229 111.460211,44.6693229 C112.584851,44.6693229 113.520614,44.2801223 114.264621,43.5026774 C115.012464,42.7252326 115.384468,41.7240214 115.384468,40.4999999 C115.384468,39.2759786 115.019175,38.2824174 114.285714,37.517404 C113.553212,36.7523907 112.615532,36.3698839 111.474592,36.3698839 M111.415149,33 C112.765101,33 114.033557,33.3366059 115.219559,34.0098176 C116.408437,34.6830294 117.334612,35.5962641 118.001918,36.7504781 C118.667306,37.9037358 119,39.1497514 119,40.4866122 C119,41.8330358 118.664429,43.0924391 117.994247,44.2629095 C117.324065,45.4343363 116.409396,46.3504398 115.253116,47.0102638 C114.095877,47.6691316 112.821668,48 111.428571,48 C109.376798,48 107.627037,47.2722811 106.176414,45.816843 C104.725791,44.361405 104,42.5932679 104,40.5133877 C104,38.2833736 104.820709,36.4272599 106.459252,34.9402652 C107.896452,33.6473925 109.548418,33 111.415149,33" id="Fill-24" fill="#696A6C" fill-rule="nonzero"></path>
                <path d="M0,5 L0,7 C1.1762386,6.00494642 2.51022923,5.33882934 4,5 L0,5 Z" id="Fill-25" fill="#ABBF2B"></path>
                <path d="M11.4274418,19.3292653 C12.4761434,18.2134495 13,16.7519302 13,14.9466999 C13,13.1753425 12.4761434,11.7417185 11.4274418,10.6458282 C10.3817055,9.55093401 9.05427262,9 7.45305059,9 C5.88839968,9 4.58864229,9.55990038 3.55377842,10.6737235 C2.51891456,11.7895392 2,13.2211706 2,14.9656289 C2,16.7220424 2.52781023,18.1666251 3.58244227,19.3003735 C4.63608591,20.4351183 5.93188966,21 7.47281876,21 C9.06020308,21 10.3817055,20.4450809 11.4274418,19.3292653" id="Fill-26" fill="#ABBF2B"></path>
                <path d="M13,7 L13,5 L9,5 C9.35579782,5.08251635 9.70664023,5.1764706 10.0475718,5.29738562 C11.1119921,5.6756536 12.0971259,6.24183007 13,7" id="Fill-27" fill="#ABBF2B"></path>
                <path d="M27.4946365,5 C27.9713152,5.13562514 28.4392386,5.30344906 28.891597,5.52884048 C30.0278435,6.09475835 30.9928748,6.91046063 31.7837724,7.97204448 L28.6980071,11.0670297 C27.4440501,9.82298616 26.3078036,9.19852508 25.2853762,9.19852508 C24.727954,9.19852508 24.2872693,9.31853869 23.9720776,9.55563876 C23.6539675,9.79371454 23.4992901,10.0903336 23.4992901,10.4454958 C23.4992901,10.7147947 23.5985172,10.9597005 23.7989168,11.1850919 C24.001262,11.4124348 24.4964243,11.718811 25.2853762,12.1110506 L27.110375,13.0272521 C29.0336278,13.9766281 30.3537361,14.9464943 31.0726456,15.9368504 C31.7905821,16.9242795 32.1485776,18.0863627 32.1485776,19.4152938 C32.1485776,21.1832994 31.5016565,22.6615158 30.2048956,23.8431132 C28.9091077,25.0295894 27.1736079,25.6199002 24.9925593,25.6199002 C22.0974654,25.6199002 19.7860598,24.4851374 18.0593153,22.2156116 L21.1236788,18.8640118 C21.7093128,19.5509189 22.3932009,20.1022011 23.1782616,20.5237123 C23.9633223,20.9422964 24.6588842,21.1520763 25.2678656,21.1520763 C25.9264606,21.1520763 26.4537256,20.9959611 26.8554978,20.6769003 C27.2582426,20.360767 27.4576695,19.9948719 27.4576695,19.5772635 C27.4576695,18.8113229 26.7329232,18.0619697 25.2853762,17.3282278 L23.6072724,16.4871568 C20.3950414,14.8616065 18.7879529,12.8311323 18.7879529,10.388904 C18.7879529,8.81506694 19.393043,7.46857273 20.6041963,6.35137281 C21.2900301,5.72008168 22.0877374,5.27417744 22.9905085,5 L17.5767998,5 L17.5767998,25.1066712 L12.5921018,25.1066712 L12.5921018,23.003018 C11.619288,23.9299523 10.642583,24.5973452 9.66490511,25.0071477 C8.68625442,25.4179261 7.62783301,25.6199002 6.48283116,25.6199002 C3.99826472,25.6199002 1.83861808,24.6714999 0,22.793238 L0,48 L37,48 L37,5 L27.4946365,5 Z" id="Fill-28" fill="#ABBF2B"></path>
                <polygon id="Fill-29" fill="#314863" points="80.6023296 50.8589161 80.0911318 50.2659785 81.396373 49.1410839 81.9088682 49.7327239"></polygon>
            </g>
        </g>
    </g>
</svg>