<?xml version="1.0" encoding="UTF-8"?>
<svg width="20px" height="43px" viewBox="0 0 20 43" version="1.1" xmlns="http://www.w3.org/2000/svg" xmlns:xlink="http://www.w3.org/1999/xlink">
    <!-- Generator: Sketch 52.6 (67491) - http://www.bohemiancoding.com/sketch -->
    <title>Group 3</title>
    <desc>Created with Sketch.</desc>
    <g id="Page-1" stroke="none" stroke-width="1" fill="none" fill-rule="evenodd">
        <g id="Desktop-HD" transform="translate(-710.000000, -804.000000)" fill="#FFFFFF">
            <g id="Group-3" transform="translate(710.000000, 804.000000)">
                <polygon id="Path" points="4 35.698 5.532375 34 10.5021667 39.6034 15.467625 34 17 35.698 10.5021667 43"></polygon>
                <path d="M10,2.41666667 C14.13625,2.41666667 17.5,5.66829167 17.5,9.66666667 L17.5,19.3333333 C17.5,23.3317083 14.13625,26.5833333 10,26.5833333 C5.86375,26.5833333 2.5,23.3317083 2.5,19.3333333 L2.5,9.66666667 C2.5,5.66829167 5.86375,2.41666667 10,2.41666667 Z M10,0 C4.4775,0 0,4.32825 0,9.66666667 L0,19.3333333 C0,24.67175 4.4775,29 10,29 C15.5225,29 20,24.67175 20,19.3333333 L20,9.66666667 C20,4.32825 15.5225,0 10,0 Z M10,10.875 C8.96375,10.875 8.125,10.063 8.125,9.0625 C8.125,8.062 8.96375,7.25 10,7.25 C11.03625,7.25 11.875,8.062 11.875,9.0625 C11.875,10.063 11.03625,10.875 10,10.875 Z" id="Shape" fill-rule="nonzero"></path>
            </g>
        </g>
    </g>
</svg>